<svg width="1200" height="760" viewBox="0 0 1200 760" fill="none" xmlns="http://www.w3.org/2000/svg" role="img" aria-labelledby="title desc">
  <title id="title">Analysis dashboard placeholder</title>
  <desc id="desc">Placeholder for analysis overview screenshot.</desc>
  <rect width="1200" height="760" rx="36" fill="#06111F"/>
  <rect x="56" y="54" width="250" height="652" rx="28" fill="#0F172A" stroke="#2A3C57"/>
  <text x="88" y="104" fill="#7DD3FC" font-family="Inter,Arial" font-size="14" font-weight="900">← NEW ANALYSIS</text>
  <text x="88" y="160" fill="#F8FAFC" font-family="Inter,Arial" font-size="26" font-weight="900">react-fastapi-saas</text>
  <rect x="88" y="192" width="104" height="32" rx="16" fill="#123A2A" stroke="#22C55E"/>
  <text x="112" y="214" fill="#BBF7D0" font-family="Inter,Arial" font-size="12" font-weight="900">COMPLETED</text>
  <rect x="88" y="270" width="186" height="44" rx="14" fill="#13243A"/>
  <rect x="88" y="326" width="186" height="44" rx="14" fill="#0B2740"/>
  <rect x="88" y="382" width="186" height="44" rx="14" fill="#13243A"/>
  <rect x="342" y="54" width="802" height="120" rx="28" fill="#0F172A" stroke="#2A3C57"/>
  <text x="382" y="104" fill="#38BDF8" font-family="Inter,Arial" font-size="14" font-weight="900">ANALYSIS OVERVIEW</text>
  <text x="382" y="148" fill="#F8FAFC" font-family="Inter,Arial" font-size="38" font-weight="900">Engineering brief dashboard</text>
  <g fill="#0F172A" stroke="#2A3C57">
    <rect x="342" y="206" width="148" height="98" rx="18"/><rect x="506" y="206" width="148" height="98" rx="18"/><rect x="670" y="206" width="148" height="98" rx="18"/><rect x="834" y="206" width="148" height="98" rx="18"/><rect x="998" y="206" width="146" height="98" rx="18"/>
  </g>
  <text x="370" y="246" fill="#93C5FD" font-family="Inter,Arial" font-size="12" font-weight="900">FILES</text><text x="370" y="276" fill="#F8FAFC" font-family="Inter,Arial" font-size="26" font-weight="900">42/68</text>
  <text x="534" y="246" fill="#93C5FD" font-family="Inter,Arial" font-size="12" font-weight="900">RISK</text><text x="534" y="276" fill="#FDE68A" font-family="Inter,Arial" font-size="26" font-weight="900">medium</text>
  <text x="698" y="246" fill="#93C5FD" font-family="Inter,Arial" font-size="12" font-weight="900">ISSUES</text><text x="698" y="276" fill="#F8FAFC" font-family="Inter,Arial" font-size="26" font-weight="900">8</text>
  <text x="862" y="246" fill="#93C5FD" font-family="Inter,Arial" font-size="12" font-weight="900">STACK</text><text x="862" y="276" fill="#F8FAFC" font-family="Inter,Arial" font-size="20" font-weight="900">React · FastAPI</text>
  <text x="1026" y="246" fill="#93C5FD" font-family="Inter,Arial" font-size="12" font-weight="900">TRACE</text><text x="1026" y="276" fill="#BBF7D0" font-family="Inter,Arial" font-size="24" font-weight="900">sent</text>
  <rect x="342" y="336" width="382" height="168" rx="24" fill="#0F172A" stroke="#2A3C57"/>
  <rect x="762" y="336" width="382" height="168" rx="24" fill="#0F172A" stroke="#2A3C57"/>
  <text x="382" y="388" fill="#F8FAFC" font-family="Inter,Arial" font-size="24" font-weight="900">Executive Summary</text>
  <rect x="382" y="418" width="282" height="16" rx="8" fill="#1E3A5F"/><rect x="382" y="450" width="310" height="16" rx="8" fill="#1E3A5F"/>
  <text x="802" y="388" fill="#F8FAFC" font-family="Inter,Arial" font-size="24" font-weight="900">Language Mix</text>
  <rect x="802" y="426" width="282" height="12" rx="6" fill="#0B2740"/><rect x="802" y="426" width="184" height="12" rx="6" fill="#06B6D4"/>
  <rect x="342" y="536" width="802" height="170" rx="24" fill="#0F172A" stroke="#2A3C57"/>
  <text x="382" y="588" fill="#F8FAFC" font-family="Inter,Arial" font-size="24" font-weight="900">Suggested Issues</text>
  <rect x="382" y="626" width="682" height="18" rx="9" fill="#1E3A5F"/><rect x="382" y="662" width="606" height="18" rx="9" fill="#1E3A5F"/>
</svg>
