<svg width="1200" height="760" viewBox="0 0 1200 760" fill="none" xmlns="http://www.w3.org/2000/svg" role="img" aria-labelledby="title desc">
  <title id="title">Landing placeholder</title>
  <desc id="desc">Placeholder for AI Codebase Explainer landing page screenshot.</desc>
  <rect width="1200" height="760" rx="36" fill="#06111F"/>
  <circle cx="160" cy="90" r="280" fill="#0EA5E9" opacity="0.16"/>
  <circle cx="1040" cy="110" r="220" fill="#2563EB" opacity="0.14"/>
  <rect x="64" y="56" width="1072" height="64" rx="22" fill="#0F172A" stroke="#23344D"/>
  <rect x="92" y="72" width="36" height="36" rx="12" fill="url(#g)"/>
  <text x="144" y="96" fill="#F8FAFC" font-family="Inter,Arial" font-size="20" font-weight="800">AI Codebase Explainer</text>
  <text x="872" y="96" fill="#BAE6FD" font-family="Inter,Arial" font-size="15" font-weight="700">Analyze · Dashboard · GitHub</text>
  <rect x="64" y="168" width="644" height="420" rx="30" fill="#0F172A" stroke="#2A3C57"/>
  <text x="104" y="224" fill="#38BDF8" font-family="Inter,Arial" font-size="15" font-weight="900">PORTFOLIO-READY AI ENGINEERING PRODUCT</text>
  <text x="104" y="292" fill="#F8FAFC" font-family="Inter,Arial" font-size="54" font-weight="900">AI Codebase</text>
  <text x="104" y="356" fill="#F8FAFC" font-family="Inter,Arial" font-size="54" font-weight="900">Explainer &amp;</text>
  <text x="104" y="420" fill="#F8FAFC" font-family="Inter,Arial" font-size="54" font-weight="900">Issue Triage</text>
  <text x="104" y="470" fill="#DBEAFE" font-family="Inter,Arial" font-size="22">Repository understanding, architecture review,</text>
  <text x="104" y="502" fill="#DBEAFE" font-family="Inter,Arial" font-size="22">risk signals and copy-ready issue drafts.</text>
  <rect x="104" y="532" width="178" height="44" rx="22" fill="url(#g)"/>
  <text x="128" y="560" fill="white" font-family="Inter,Arial" font-size="15" font-weight="900">Analyze Repository</text>
  <rect x="296" y="532" width="178" height="44" rx="22" fill="#132033" stroke="#38BDF8" opacity="0.95"/>
  <text x="322" y="560" fill="#E0F2FE" font-family="Inter,Arial" font-size="15" font-weight="900">Try Demo Repo</text>
  <rect x="746" y="168" width="390" height="420" rx="30" fill="#0F172A" stroke="#2A3C57"/>
  <text x="786" y="224" fill="#38BDF8" font-family="Inter,Arial" font-size="15" font-weight="900">LIVE PRODUCT SHAPE</text>
  <rect x="786" y="260" width="310" height="250" rx="22" fill="#020617" stroke="#27405F"/>
  <rect x="810" y="294" width="78" height="72" rx="16" fill="#0B2740"/>
  <rect x="904" y="294" width="78" height="72" rx="16" fill="#0B2740"/>
  <rect x="998" y="294" width="74" height="72" rx="16" fill="#0B2740"/>
  <text x="827" y="323" fill="#93C5FD" font-family="Inter,Arial" font-size="12" font-weight="800">RISK</text>
  <text x="820" y="350" fill="#F8FAFC" font-family="Inter,Arial" font-size="18" font-weight="900">medium</text>
  <rect x="810" y="390" width="262" height="18" rx="9" fill="#1E3A5F"/>
  <rect x="810" y="424" width="214" height="18" rx="9" fill="#1E3A5F"/>
  <rect x="810" y="458" width="240" height="18" rx="9" fill="#1E3A5F"/>
  <rect x="64" y="628" width="1072" height="78" rx="24" fill="#0F172A" stroke="#2A3C57"/>
  <text x="104" y="676" fill="#E0F2FE" font-family="Inter,Arial" font-size="22" font-weight="800">First observability platform → then an instrumented AI repository analysis product.</text>
  <defs><linearGradient id="g" x1="0" y1="0" x2="1" y2="1"><stop stop-color="#2563EB"/><stop offset="1" stop-color="#06B6D4"/></linearGradient></defs>
</svg>
