<svg width="1200" height="760" viewBox="0 0 1200 760" fill="none" xmlns="http://www.w3.org/2000/svg" role="img" aria-labelledby="title desc">
  <title id="title">Observability placeholder</title>
  <desc id="desc">Placeholder for observability integration screenshot.</desc>
  <rect width="1200" height="760" rx="36" fill="#06111F"/>
  <rect x="72" y="64" width="1056" height="132" rx="30" fill="#0F172A" stroke="#2A3C57"/>
  <text x="116" y="118" fill="#38BDF8" font-family="Inter,Arial" font-size="14" font-weight="900">OBSERVABILITY INTEGRATION</text>
  <text x="116" y="166" fill="#F8FAFC" font-family="Inter,Arial" font-size="42" font-weight="900">Trace status &amp; portfolio story</text>
  <g fill="#0F172A" stroke="#2A3C57">
    <rect x="72" y="236" width="250" height="112" rx="22"/><rect x="346" y="236" width="250" height="112" rx="22"/><rect x="620" y="236" width="250" height="112" rx="22"/><rect x="894" y="236" width="234" height="112" rx="22"/>
  </g>
  <text x="106" y="282" fill="#93C5FD" font-family="Inter,Arial" font-size="12" font-weight="900">ENABLED</text><text x="106" y="316" fill="#F8FAFC" font-family="Inter,Arial" font-size="22" font-weight="900">backend configured</text>
  <text x="380" y="282" fill="#93C5FD" font-family="Inter,Arial" font-size="12" font-weight="900">TRACE ID</text><text x="380" y="316" fill="#F8FAFC" font-family="Inter,Arial" font-size="22" font-weight="900">trace_abc123</text>
  <text x="654" y="282" fill="#93C5FD" font-family="Inter,Arial" font-size="12" font-weight="900">STATUS</text><text x="654" y="316" fill="#BBF7D0" font-family="Inter,Arial" font-size="22" font-weight="900">sent</text>
  <text x="928" y="282" fill="#93C5FD" font-family="Inter,Arial" font-size="12" font-weight="900">APP</text><text x="928" y="316" fill="#F8FAFC" font-family="Inter,Arial" font-size="20" font-weight="900">codebase explainer</text>
  <rect x="72" y="388" width="514" height="296" rx="28" fill="#0F172A" stroke="#2A3C57"/>
  <text x="112" y="440" fill="#F8FAFC" font-family="Inter,Arial" font-size="26" font-weight="900">Operations represented</text>
  <g fill="#0B2740" stroke="#24506F"><rect x="112" y="476" width="178" height="36" rx="18"/><rect x="304" y="476" width="140" height="36" rx="18"/><rect x="112" y="532" width="248" height="36" rx="18"/><rect x="112" y="588" width="196" height="36" rx="18"/></g>
  <text x="134" y="500" fill="#BAE6FD" font-family="Inter,Arial" font-size="13" font-weight="900">analyze_repository</text>
  <text x="326" y="500" fill="#BAE6FD" font-family="Inter,Arial" font-size="13" font-weight="900">detect_stack</text>
  <text x="134" y="556" fill="#BAE6FD" font-family="Inter,Arial" font-size="13" font-weight="900">generate_architecture_summary</text>
  <text x="134" y="612" fill="#BAE6FD" font-family="Inter,Arial" font-size="13" font-weight="900">generate_issue_triage</text>
  <rect x="620" y="388" width="508" height="296" rx="28" fill="#0F172A" stroke="#2A3C57"/>
  <text x="660" y="440" fill="#F8FAFC" font-family="Inter,Arial" font-size="26" font-weight="900">Trace timeline</text>
  <circle cx="676" cy="496" r="18" fill="#06B6D4"/><rect x="714" y="486" width="300" height="16" rx="8" fill="#1E3A5F"/>
  <circle cx="676" cy="556" r="18" fill="#2563EB"/><rect x="714" y="546" width="350" height="16" rx="8" fill="#1E3A5F"/>
  <circle cx="676" cy="616" r="18" fill="#06B6D4"/><rect x="714" y="606" width="264" height="16" rx="8" fill="#1E3A5F"/>
</svg>
